<svg height="512pt" viewBox="-31 0 512 512" width="512pt" xmlns="http://www.w3.org/2000/svg"><path d="m395 0h-340c-30.328125 0-55 24.671875-55 55v402c0 30.328125 24.671875 55 55 55h340c30.328125 0 55-24.671875 55-55v-402c0-30.328125-24.671875-55-55-55zm0 0" fill="#ae2538"/><path d="m335 0h-280c-30.328125 0-55 24.671875-55 55v402c0 30.328125 24.671875 55 55 55h280c30.328125 0 55-24.671875 55-55v-402c0-30.328125-24.671875-55-55-55zm0 0" fill="#ec5569"/><path d="m335 0h-140v512h140c30.328125 0 55-24.671875 55-55v-402c0-30.328125-24.671875-55-55-55zm0 0" fill="#e63950"/><g fill="#ffe54e"><path d="m268 340h-146c-8.285156 0-15 6.714844-15 15s6.714844 15 15 15h146c8.285156 0 15-6.714844 15-15s-6.714844-15-15-15zm0 0"/><path d="m244 400h-96c-8.285156 0-15 6.714844-15 15s6.714844 15 15 15h96c8.285156 0 15-6.714844 15-15s-6.714844-15-15-15zm0 0"/><path d="m195 288c61.757812 0 112-50.242188 112-112s-50.242188-112-112-112-112 50.242188-112 112 50.242188 112 112 112zm-80.601562-97h30.007812c1.140625 20.925781 4.65625 40.4375 10.191406 56.3125-20.648437-11.746094-35.71875-32.183594-40.199218-56.3125zm80.601562-96.910156c1.726562.898437 7.316406 6.144531 12.546875 21.816406 4.21875 12.636719 6.960937 28.277344 7.988281 45.09375h-41.074218c1.03125-16.816406 3.773437-32.457031 7.992187-45.09375 5.230469-15.671875 10.820313-20.917969 12.546875-21.816406zm20.535156 96.910156c-1.027344 16.816406-3.769531 32.457031-7.988281 45.09375-5.230469 15.671875-10.820313 20.917969-12.546875 21.816406-1.726562-.898437-7.316406-6.144531-12.546875-21.816406-4.21875-12.636719-6.960937-28.277344-7.988281-45.09375zm19.867188 56.3125c5.535156-15.875 9.050781-35.386719 10.191406-56.3125h30.007812c-4.480468 24.128906-19.550781 44.566406-40.199218 56.3125zm40.199218-86.3125h-30.007812c-1.140625-20.925781-4.65625-40.4375-10.191406-56.3125 20.648437 11.746094 35.71875 32.183594 40.199218 56.3125zm-121.003906-56.3125c-5.535156 15.875-9.050781 35.386719-10.191406 56.3125h-30.007812c4.480468-24.128906 19.550781-44.566406 40.199218-56.3125zm0 0"/></g><path d="m268 340h-73v30h73c8.285156 0 15-6.714844 15-15s-6.714844-15-15-15zm0 0" fill="#fecc29"/><path d="m244 430c8.285156 0 15-6.714844 15-15s-6.714844-15-15-15h-49v30zm0 0" fill="#fecc29"/><path d="m307 176c0-61.757812-50.242188-112-112-112v30.089844c1.726562.898437 7.316406 6.144531 12.546875 21.816406 4.21875 12.636719 6.960937 28.277344 7.988281 45.09375h-20.535156v30h20.535156c-1.027344 16.816406-3.769531 32.457031-7.988281 45.09375-5.230469 15.671875-10.820313 20.917969-12.546875 21.816406v30.089844c61.757812 0 112-50.242188 112-112zm-31.398438-15h-30.007812c-1.140625-20.925781-4.65625-40.4375-10.191406-56.3125 20.648437 11.746094 35.71875 32.183594 40.199218 56.3125zm-40.199218 86.3125c5.535156-15.875 9.050781-35.386719 10.191406-56.3125h30.007812c-4.480468 24.128906-19.550781 44.566406-40.199218 56.3125zm0 0" fill="#fecc29"/></svg>